<svg xmlns="http://www.w3.org/2000/svg" viewBox="0 0 96 96" role="img" aria-label="bento">
  <g stroke="#334155" fill="none" stroke-width="3" stroke-linecap="round" stroke-linejoin="round">
    <rect x="8" y="8" width="80" height="80" rx="8"/>
    <line x1="8" y1="44" x2="88" y2="44"/>
    <line x1="35" y1="44" x2="35" y2="88"/>
    <line x1="61" y1="44" x2="61" y2="88"/>
  </g>
  <path d="M 22 21 L 30 27 L 22 33"
        stroke="#334155" stroke-width="3" fill="none" stroke-linecap="round" stroke-linejoin="round"/>
  <rect x="35" y="20" width="12" height="14" rx="1.5" fill="#10b981"/>
  <circle cx="56" cy="27" r="2" fill="#334155"/>
  <circle cx="64" cy="27" r="2" fill="#334155"/>
  <circle cx="72" cy="27" r="2" fill="#334155" opacity="0.45"/>
  <g stroke="#334155" stroke-width="2.5" fill="none" stroke-linecap="round" stroke-linejoin="round">
    <path d="M 18 58 Q 14 58 14 62 L 14 64 Q 14 66 12 66 Q 14 66 14 68 L 14 70 Q 14 74 18 74"/>
    <path d="M 25 58 Q 29 58 29 62 L 29 64 Q 29 66 31 66 Q 29 66 29 68 L 29 70 Q 29 74 25 74"/>
  </g>
  <g stroke="#334155" stroke-width="2.5" stroke-linecap="round">
    <line x1="41" y1="60" x2="55" y2="60"/>
    <line x1="41" y1="66" x2="55" y2="66"/>
    <line x1="41" y1="72" x2="55" y2="72"/>
  </g>
  <path d="M 68 58 L 81 66 L 68 74 Z" fill="#10b981" stroke="#10b981" stroke-width="2.5" stroke-linejoin="round"/>
</svg>
